<svg width="88" height="88" viewBox="0 0 88 88" fill="none" xmlns="http://www.w3.org/2000/svg">
<path d="M88 44C88 68.3005 68.3005 88 44 88C19.6995 88 0 68.3005 0 44C0 19.6995 19.6995 0 44 0C68.3005 0 88 19.6995 88 44Z" fill="#36536B"/>
<path d="M88 44C88 68.3005 68.3005 88 44 88C19.6995 88 0 68.3005 0 44C0 19.6995 19.6995 0 44 0C68.3005 0 88 19.6995 88 44Z" fill="#36536B"/>
<path d="M49.8061 26.0509L47.23 33.559H32.5581L29.9817 26.0509L34.2514 23.2453L37.0727 25.0994L39.8941 23.2453L42.7154 25.0994L45.5368 23.2453L49.8061 26.0509Z" fill="#EDF3F8"/>
<path d="M33.0424 35.9774H46.7458V38.3957H33.0424V35.9774Z" fill="#EDF3F8"/>
<path d="M39.2647 49.4875C39.2647 49.5996 39.3018 49.6909 39.3761 49.7617C39.4504 49.8329 39.5616 49.898 39.7102 49.9575V49.1074C39.4133 49.1446 39.2647 49.2715 39.2647 49.4875Z" fill="#EDF3F8"/>
<path d="M40.2892 52.4744V53.3022C40.4677 53.2874 40.5936 53.2499 40.668 53.1904C40.7423 53.1306 40.7794 53.0525 40.7794 52.9555C40.7794 52.851 40.735 52.7597 40.6456 52.6813C40.5565 52.6032 40.4378 52.5342 40.2892 52.4744Z" fill="#EDF3F8"/>
<path fill-rule="evenodd" clip-rule="evenodd" d="M45.6173 50.0032H51.7638C51.6369 49.6487 51.4918 49.2979 51.3271 48.9522L47.4516 40.8141H32.3365L28.461 48.9522C26.8462 52.3434 27.0792 56.2646 29.0847 59.4404C31.09 62.6166 34.5297 64.5129 38.2861 64.5129H41.502C42.0744 64.5129 42.6414 64.4682 43.199 64.3823V57.2582H45.6173V50.0032ZM42.8901 53.867C42.7378 54.1765 42.5372 54.4303 42.2885 54.6277C42.0397 54.8254 41.7558 54.9746 41.4365 55.0754C41.1172 55.1758 40.7867 55.2375 40.445 55.2599V56.6134H39.5543V55.2375C39.0418 55.1928 38.533 55.0921 38.0283 54.9356C37.5233 54.7788 37.0705 54.5814 36.6697 54.3424L37.6051 52.4297C37.8057 52.5566 38.021 52.6759 38.2512 52.7877C38.4442 52.8847 38.6687 52.9797 38.925 53.0729C39.1812 53.1665 39.4429 53.2313 39.7102 53.2685V52.2843C39.48 52.2248 39.2499 52.1539 39.0197 52.0717C38.6706 51.9524 38.3699 51.8239 38.1177 51.6857C37.8652 51.5478 37.6571 51.3913 37.494 51.216C37.3306 51.0409 37.21 50.8413 37.1319 50.6178C37.0538 50.3939 37.0148 50.1367 37.0148 49.8458C37.0148 49.4431 37.0818 49.087 37.2153 48.7775C37.3491 48.4683 37.5308 48.2013 37.761 47.9778C37.9911 47.7539 38.2603 47.5751 38.5686 47.4407C38.8768 47.3065 39.2052 47.2209 39.5543 47.1834V46.0537H40.4454V47.1948C40.6903 47.2243 40.9277 47.2694 41.1582 47.3292C41.3883 47.3887 41.609 47.4576 41.8209 47.5357C42.0325 47.6141 42.2312 47.6963 42.4166 47.7819C42.6024 47.8679 42.773 47.9482 42.9292 48.0225L41.9935 49.8234C41.8301 49.7192 41.6519 49.6222 41.4589 49.5325C41.2954 49.4506 41.1116 49.3741 40.9076 49.3033C40.7032 49.2324 40.4973 49.1786 40.2892 49.1411V50.1477C40.3563 50.1631 40.4268 50.1833 40.5011 50.2094C40.5751 50.2355 40.6532 50.2598 40.735 50.2821C41.0987 50.3939 41.4271 50.517 41.7205 50.6511C42.0139 50.7856 42.2645 50.944 42.4723 51.1266C42.6801 51.3095 42.8401 51.5315 42.9512 51.7921C43.0627 52.0535 43.1184 52.3702 43.1184 52.7433C43.1184 53.1831 43.0422 53.5578 42.8901 53.867Z" fill="#EDF3F8"/>
<path d="M48.0357 52.4215H60.5298V57.2582H48.0357V52.4215Z" fill="#EDF3F8"/>
<path d="M58.1117 59.6762H45.6173V64.5129H58.1117V59.6762Z" fill="#EDF3F8"/>
</svg>
