<svg width="138" height="271" viewBox="0 0 138 271" fill="none" xmlns="http://www.w3.org/2000/svg">
<path fill-rule="evenodd" clip-rule="evenodd" d="M19.2452 0.308421H119.41C129.017 0.308421 136.804 8.0232 136.804 17.5399V253.432C136.804 262.949 129.017 270.664 119.41 270.664H19.2452C9.63883 270.664 1.8513 262.949 1.8513 253.432V17.5399C1.8513 8.0232 9.63883 0.308421 19.2452 0.308421Z" fill="#213648"/>
<path fill-rule="evenodd" clip-rule="evenodd" d="M119.798 0H18.7982C14.0828 0.297504 9.73396 2.5238 5.75176 6.6789C8.31277 4.36585 12.8806 1.27063 18.9197 1.27063C18.9197 1.27063 115.65 1.27063 119.676 1.27063C125.715 1.27063 130.283 4.36585 132.844 6.6789C128.862 2.5238 124.513 0.297504 119.798 0Z" fill="url(#paint0_linear_7704_3)" fill-opacity="0.65"/>
<path fill-rule="evenodd" clip-rule="evenodd" d="M134.071 250.743V18.9586C134.071 12.7397 131.862 10.4407 130.544 8.96446C129.227 7.48824 129.17 6.7353 131.064 7.84988C132.957 8.96446 136.745 12.2107 136.745 18.9586V250.743C136.745 257.491 132.957 260.737 131.064 261.851C129.17 262.966 129.227 262.213 130.544 260.737C131.862 259.261 134.071 256.962 134.071 250.743Z" fill="url(#paint1_linear_7704_3)"/>
<path fill-rule="evenodd" clip-rule="evenodd" d="M4.52462 250.743V18.9586C4.52462 12.7397 6.73365 10.4407 8.05145 8.96446C9.36926 7.48824 9.42535 6.7353 7.53189 7.84988C5.63844 8.96446 1.85123 12.2107 1.85123 18.9586V250.743C1.85123 257.491 5.63844 260.737 7.53189 261.851C9.42535 262.966 9.36926 262.213 8.05145 260.737C6.73365 259.261 4.52462 256.962 4.52462 250.743Z" fill="url(#paint2_linear_7704_3)"/>
<path fill-rule="evenodd" clip-rule="evenodd" d="M0.506226 56.5251C0.506226 55.7041 1.08833 55.0386 1.8064 55.0386C2.52447 55.0386 3.10658 55.7041 3.10658 56.5251V88.4267C3.10658 89.2477 2.52447 89.9132 1.8064 89.9132C1.08833 89.9132 0.506226 89.2477 0.506226 88.4267V56.5251Z" fill="#2E423C"/>
<path fill-rule="evenodd" clip-rule="evenodd" d="M135.399 84.9701C135.399 84.1491 135.982 83.4836 136.7 83.4836C137.418 83.4836 138 84.1491 138 84.9701V107.441C138 108.262 137.418 108.928 136.7 108.928C135.982 108.928 135.399 108.262 135.399 107.441V84.9701Z" fill="#2E423C"/>
<path fill-rule="evenodd" clip-rule="evenodd" d="M57.4292 6.74459H18.4563C12.6399 6.74459 8.40192 10.8435 8.40192 16.1969V245.109C8.40192 252.089 14.9504 258.274 22.3551 258.274H116.287C123.42 258.274 130.24 252.041 130.24 245.109V16.8156C130.24 10.3992 125.636 6.78275 120.186 6.74459H80.5952C80.4451 6.77003 77.7255 7.92698 76.5761 10.8435C75.4266 13.76 73.1138 16.0849 70.5817 16.0849H67.6406C66.437 16.0849 63.2681 14.8766 61.6636 10.8435C60.059 6.8104 57.5792 6.77003 57.4292 6.74459Z" fill="#36536B"/>
<path fill-rule="evenodd" clip-rule="evenodd" d="M57.4292 6.74459H18.4563C12.6399 6.74459 8.40192 10.8435 8.40192 16.1969V245.109C8.40192 252.089 14.9504 258.274 22.3551 258.274H116.287C123.42 258.274 130.24 252.041 130.24 245.109V16.8156C130.24 10.3992 125.636 6.78275 120.186 6.74459H80.5952C80.4451 6.77003 77.7255 7.92698 76.5761 10.8435C75.4266 13.76 73.1138 16.0849 70.5817 16.0849H67.6406C66.437 16.0849 63.2681 14.8766 61.6636 10.8435C60.059 6.8104 57.5792 6.77003 57.4292 6.74459Z" fill="#36536B"/>
<path d="M23.029 78.9549C23.029 77.8503 23.9245 76.9549 25.029 76.9549H113.215C114.32 76.9549 115.215 77.8503 115.215 78.9549V178.466C115.215 179.571 114.32 180.466 113.215 180.466H25.029C23.9245 180.466 23.029 179.571 23.029 178.466V78.9549Z" fill="#FBFCFE"/>
<path fill-rule="evenodd" clip-rule="evenodd" d="M79.6697 140.947L79.6698 141.576H78.8118L78.8117 140.948L78.7964 140.946C78.4113 140.898 78.0851 140.784 77.8177 140.605C77.45 140.36 77.2389 139.981 77.1844 139.469L78.2194 139.448C78.2739 139.681 78.3913 139.857 78.5718 139.978C78.7522 140.099 78.9786 140.16 79.251 140.16C79.4144 140.16 79.5591 140.132 79.6851 140.077C79.8111 140.022 79.9104 139.947 79.983 139.852C80.0556 139.756 80.0919 139.648 80.0919 139.526C80.0919 139.338 80.0341 139.198 79.9183 139.105C79.8026 139.012 79.6244 138.937 79.3838 138.881L78.5769 138.701C78.2024 138.624 77.9022 138.47 77.6764 138.238C77.4505 138.007 77.3354 137.696 77.3308 137.307C77.3285 136.987 77.412 136.711 77.581 136.477C77.7501 136.243 77.9805 136.063 78.2722 135.936L78.3994 135.886C78.5287 135.839 78.6647 135.804 78.8072 135.781L78.8285 135.778L78.8288 135.08H79.6902L79.6901 135.782L79.7749 135.797C79.9358 135.832 80.084 135.883 80.2196 135.952C80.4908 136.089 80.6997 136.274 80.8461 136.505C80.9925 136.736 81.0634 136.992 81.0589 137.271L80.0545 137.289C80.0227 137.063 79.9501 136.886 79.8366 136.757C79.7231 136.628 79.5347 136.563 79.2714 136.563C79.1352 136.563 79.0138 136.578 78.9071 136.609C78.8005 136.64 78.7085 136.682 78.6314 136.738C78.5542 136.793 78.4958 136.858 78.456 136.933C78.4163 137.008 78.3965 137.093 78.3965 137.187C78.3965 137.335 78.4447 137.452 78.5411 137.537C78.6376 137.623 78.8198 137.702 79.0876 137.775L79.8809 137.976C80.328 138.086 80.6509 138.275 80.8495 138.543C81.0481 138.811 81.1474 139.136 81.1474 139.519C81.1474 139.812 81.0696 140.068 80.9142 140.287C80.7587 140.505 80.5391 140.674 80.2554 140.794L80.1307 140.842C80.003 140.886 79.8661 140.919 79.7201 140.941L79.6697 140.947ZM41.2719 139.036V140.903H40.5297V135.809H42.2354C42.5872 135.809 42.9021 135.871 43.1801 135.996C43.4582 136.12 43.6772 136.304 43.8372 136.545C43.9972 136.787 44.0773 137.084 44.0773 137.437C44.0773 137.775 44.0041 138.063 43.8577 138.301C43.7113 138.54 43.507 138.722 43.2448 138.847C42.9827 138.973 42.6791 139.036 42.3341 139.036H41.2719ZM41.2684 138.42H42.3136C42.6268 138.42 42.8822 138.326 43.0796 138.14C43.2771 137.953 43.3758 137.705 43.3758 137.395C43.3758 137.08 43.2737 136.839 43.0694 136.671C42.8652 136.503 42.6041 136.419 42.2864 136.419H41.2684V138.42ZM45.6273 140.973C45.8793 140.973 46.1057 140.92 46.3065 140.813C46.5074 140.706 46.6737 140.513 46.8053 140.233L46.8632 140.902H47.4794V138.356C47.4794 138.107 47.4289 137.895 47.3279 137.722C47.2269 137.548 47.0731 137.416 46.8666 137.325C46.66 137.235 46.3968 137.19 46.0767 137.19C45.7885 137.19 45.5377 137.232 45.3243 137.316C45.111 137.401 44.9436 137.526 44.8221 137.692C44.7007 137.857 44.6332 138.061 44.6196 138.303H45.2528C45.2982 138.098 45.3941 137.952 45.5405 137.862C45.6869 137.773 45.8543 137.729 46.0427 137.729C46.2923 137.726 46.4773 137.785 46.5976 137.905C46.7179 138.024 46.7781 138.189 46.7781 138.398V138.662L46.1993 138.68C45.5933 138.691 45.1518 138.797 44.8749 138.997C44.598 139.196 44.4595 139.498 44.4595 139.902C44.4595 140.127 44.5095 140.32 44.6093 140.48C44.7092 140.639 44.8471 140.762 45.023 140.846C45.1989 140.931 45.4003 140.973 45.6273 140.973ZM45.3583 140.285C45.4899 140.394 45.6556 140.449 45.8554 140.449C45.9666 140.449 46.0767 140.428 46.1856 140.387C46.2946 140.346 46.3933 140.289 46.4818 140.218C46.5703 140.146 46.6413 140.066 46.6946 139.976C46.7479 139.887 46.7757 139.796 46.778 139.702V139.099L46.3014 139.11C46.0585 139.112 45.8525 139.138 45.6834 139.187C45.5143 139.237 45.385 139.313 45.2953 139.416C45.2057 139.52 45.1608 139.657 45.1608 139.829C45.1608 140.023 45.2266 140.175 45.3583 140.285ZM48.7351 142.065C48.903 142.065 49.0585 142.038 49.2015 141.984C49.3445 141.93 49.4756 141.834 49.5947 141.695C49.7139 141.557 49.8234 141.361 49.9233 141.107L51.3907 137.26H50.6757L49.6952 139.952L48.7078 137.26H47.9793L49.3513 140.797L49.2424 141.104C49.2287 141.143 49.2083 141.187 49.1811 141.234C49.1538 141.281 49.1147 141.325 49.0636 141.366C49.0125 141.407 48.9433 141.439 48.8559 141.463C48.7686 141.486 48.6568 141.495 48.5206 141.488L48.1631 141.48V141.967L48.2874 142.016C48.3702 142.049 48.5195 142.065 48.7351 142.065ZM52.6968 138.497V140.902H51.9682V137.26H52.6764V137.785C52.7763 137.625 52.9125 137.486 53.085 137.367C53.2575 137.249 53.4799 137.19 53.7523 137.19C53.8794 137.19 54.0082 137.212 54.1387 137.257C54.2692 137.301 54.3895 137.368 54.4996 137.456C54.6097 137.544 54.6965 137.652 54.76 137.781C54.8712 137.608 55.0199 137.466 55.206 137.355C55.3921 137.245 55.601 137.19 55.8325 137.19C55.9573 137.19 56.0867 137.21 56.2206 137.251C56.3545 137.292 56.4788 137.362 56.5934 137.459C56.708 137.557 56.8011 137.691 56.8726 137.862C56.9441 138.034 56.9798 138.251 56.9798 138.514V140.902H56.2478V138.595C56.2478 138.396 56.2155 138.239 56.1508 138.127C56.0861 138.014 56.0021 137.935 55.8989 137.889C55.7956 137.843 55.6861 137.82 55.5703 137.82C55.4659 137.82 55.357 137.841 55.2435 137.884C55.13 137.926 55.0335 137.996 54.9541 138.095C54.8746 138.194 54.8349 138.327 54.8349 138.497V140.902H54.1063V138.433C54.1063 138.299 54.0717 138.187 54.0025 138.095C53.9333 138.003 53.847 137.935 53.7437 137.889C53.6405 137.843 53.5378 137.82 53.4356 137.82C53.3221 137.82 53.2087 137.844 53.0952 137.891C52.9817 137.938 52.8869 138.011 52.8109 138.111C52.7348 138.211 52.6968 138.339 52.6968 138.497ZM59.3698 140.973C59.6035 140.973 59.8271 140.929 60.0405 140.841C60.2538 140.753 60.436 140.622 60.5869 140.448C60.7378 140.274 60.8337 140.063 60.8746 139.814H60.2005C60.1528 140.009 60.0524 140.156 59.8992 140.254C59.746 140.353 59.565 140.402 59.3561 140.402C59.1473 140.402 58.9726 140.352 58.8318 140.253C58.6911 140.153 58.5861 140.017 58.5169 139.844C58.4477 139.671 58.4131 139.476 58.4131 139.257H60.8916V139.007C60.8916 138.639 60.8315 138.319 60.7112 138.047C60.5909 137.776 60.4144 137.565 60.1818 137.415C59.9491 137.265 59.6626 137.19 59.3221 137.19C58.9771 137.19 58.682 137.272 58.4369 137.436C58.1918 137.601 58.0045 137.828 57.8751 138.118C57.7458 138.408 57.6811 138.742 57.6811 139.12C57.6811 139.503 57.752 139.833 57.8939 140.11C58.0357 140.387 58.2338 140.6 58.488 140.749C58.7422 140.898 59.0361 140.973 59.3698 140.973ZM58.413 138.768H60.197C60.197 138.578 60.1652 138.405 60.1017 138.249C60.0381 138.092 59.9411 137.969 59.8106 137.879C59.6801 137.788 59.5161 137.743 59.3186 137.743C59.1166 137.743 58.9487 137.794 58.8147 137.895C58.6808 137.996 58.5804 138.125 58.5134 138.282C58.4465 138.439 58.413 138.601 58.413 138.768ZM62.3811 140.902V138.496C62.3811 138.346 62.4208 138.221 62.5002 138.121C62.5797 138.021 62.6841 137.947 62.8135 137.897C62.9428 137.848 63.079 137.823 63.222 137.823C63.4354 137.823 63.6096 137.887 63.7446 138.013C63.8797 138.14 63.9472 138.334 63.9472 138.595V140.902H64.6758V138.514C64.6758 138.211 64.619 137.964 64.5055 137.772C64.3921 137.581 64.2417 137.44 64.0544 137.349C63.8672 137.259 63.6635 137.214 63.4433 137.214C63.2572 137.214 63.0932 137.241 62.9513 137.295C62.8095 137.349 62.6903 137.419 62.5939 137.506C62.4974 137.593 62.4208 137.686 62.364 137.785V137.26H61.6525V140.902H62.3811ZM67.0992 140.907C67.0095 140.921 66.8943 140.928 66.7536 140.928C66.4926 140.928 66.29 140.892 66.1459 140.819C66.0017 140.746 65.9019 140.641 65.8463 140.504C65.7906 140.366 65.7628 140.2 65.7628 140.005V137.804H65.1909V137.261H65.7833L65.9637 136.19H66.4914V137.258H67.2813V137.804H66.4914L66.4948 139.977C66.4948 140.097 66.5067 140.184 66.5306 140.239C66.5544 140.295 66.5953 140.33 66.6531 140.345C66.711 140.36 66.7899 140.368 66.8898 140.368H67.3017V140.858C67.2563 140.876 67.1888 140.893 67.0992 140.907ZM70.9243 140.973C71.2761 140.973 71.5729 140.894 71.8146 140.735C72.0564 140.577 72.2402 140.356 72.3662 140.075C72.4921 139.793 72.5551 139.468 72.5551 139.099C72.5551 138.695 72.4882 138.35 72.3543 138.065C72.2203 137.78 72.032 137.562 71.7891 137.413C71.5462 137.264 71.2591 137.19 70.9277 137.19C70.5805 137.19 70.2843 137.269 70.0391 137.427C69.794 137.586 69.6073 137.808 69.4791 138.095C69.3508 138.381 69.2867 138.716 69.2867 139.099C69.2867 139.496 69.3542 139.834 69.4893 140.113C69.6243 140.393 69.815 140.606 70.0613 140.753C70.3075 140.9 70.5952 140.973 70.9243 140.973ZM70.3931 140.213C70.5293 140.333 70.7075 140.393 70.9276 140.393C71.1274 140.393 71.2948 140.338 71.4298 140.229C71.5649 140.12 71.6664 139.966 71.7345 139.767C71.8026 139.569 71.8367 139.339 71.8367 139.079C71.8367 138.837 71.8066 138.617 71.7464 138.418C71.6863 138.22 71.5893 138.062 71.4554 137.944C71.3214 137.827 71.1455 137.768 70.9276 137.768C70.7234 137.768 70.5531 137.822 70.4169 137.929C70.2808 138.035 70.1781 138.187 70.1088 138.383C70.0396 138.579 70.005 138.811 70.005 139.079C70.005 139.316 70.0356 139.534 70.0969 139.734C70.1582 139.934 70.2569 140.093 70.3931 140.213ZM74.3634 140.903V137.803H75.1873V137.261H74.3498V136.796C74.3498 136.638 74.3753 136.521 74.4264 136.445C74.4775 136.369 74.5733 136.331 74.7141 136.331H75.2214L75.218 135.809H74.5166C74.2261 135.809 74.0059 135.886 73.8561 136.04C73.7063 136.194 73.6314 136.416 73.6314 136.707V137.261H72.913V137.803H73.6314V140.903H74.3634ZM83.5361 140.98C83.9674 140.98 84.3385 140.88 84.6494 140.679C84.9604 140.478 85.1993 140.175 85.3661 139.77C85.5329 139.365 85.6163 138.858 85.6163 138.25C85.6163 137.74 85.5352 137.297 85.3729 136.92C85.2106 136.543 84.978 136.252 84.6749 136.047C84.3719 135.841 84.0116 135.738 83.594 135.738C83.2217 135.738 82.8972 135.812 82.6203 135.96C82.3434 136.108 82.1277 136.313 81.9734 136.573C81.8191 136.834 81.7419 137.131 81.7419 137.465C81.7419 137.796 81.8151 138.082 81.9615 138.322C82.1079 138.563 82.3099 138.749 82.5675 138.879C82.8251 139.009 83.1207 139.074 83.4544 139.074C83.6382 139.074 83.8051 139.049 83.9549 138.999C84.1047 138.948 84.2358 138.877 84.3481 138.784C84.4605 138.691 84.5484 138.582 84.612 138.458C84.6392 138.864 84.608 139.193 84.5183 139.444C84.4287 139.696 84.2948 139.879 84.1166 139.994C83.9384 140.109 83.7313 140.166 83.4953 140.166C83.2819 140.166 83.1049 140.105 82.9641 139.981C82.8234 139.858 82.7326 139.698 82.6918 139.501H81.7453C81.7657 139.799 81.8599 140.059 82.0279 140.281C82.1958 140.503 82.4126 140.675 82.6781 140.797C82.9437 140.919 83.2297 140.98 83.5361 140.98ZM83.0357 138.037C83.1855 138.184 83.3818 138.257 83.6247 138.257C83.7631 138.257 83.8976 138.225 84.0281 138.16C84.1586 138.096 84.2659 138.014 84.3499 137.915C84.4338 137.817 84.4758 137.715 84.4758 137.609C84.4781 137.381 84.4435 137.186 84.372 137.022C84.3005 136.859 84.2006 136.734 84.0724 136.647C83.9441 136.56 83.7949 136.517 83.6247 136.517C83.4681 136.517 83.3285 136.554 83.2059 136.63C83.0834 136.705 82.9869 136.81 82.9165 136.947C82.8462 137.083 82.811 137.24 82.811 137.419C82.811 137.684 82.8859 137.89 83.0357 138.037ZM89.864 140.903V140.036H87.3548V139.99C87.3548 139.835 87.4002 139.703 87.491 139.592C87.5818 139.482 87.702 139.383 87.8519 139.295C88.0017 139.206 88.1656 139.12 88.3438 139.036C88.522 138.951 88.7007 138.859 88.88 138.761C89.0594 138.662 89.2239 138.547 89.3737 138.416C89.5235 138.284 89.6438 138.126 89.7346 137.94C89.8254 137.755 89.8708 137.534 89.8708 137.278C89.8708 136.97 89.7981 136.701 89.6529 136.471C89.5076 136.241 89.3016 136.061 89.035 135.932C88.7683 135.803 88.4511 135.738 88.0834 135.738C87.6544 135.738 87.298 135.816 87.0143 135.971C86.7306 136.126 86.5178 136.336 86.376 136.6C86.2341 136.864 86.1609 137.158 86.1564 137.482H87.1062C87.1471 137.184 87.2538 136.961 87.4263 136.813C87.5988 136.665 87.8087 136.591 88.0561 136.591C88.2945 136.591 88.4823 136.655 88.6196 136.785C88.7569 136.914 88.8256 137.081 88.8256 137.285C88.8256 137.445 88.779 137.583 88.686 137.701C88.5929 137.818 88.4698 137.924 88.3166 138.019C88.1634 138.114 87.9948 138.209 87.811 138.303C87.6271 138.397 87.4439 138.497 87.2612 138.602C87.0784 138.708 86.9105 138.831 86.7573 138.97C86.6041 139.11 86.4809 139.275 86.3879 139.464C86.2948 139.653 86.2483 139.876 86.2483 140.135V140.903H89.864ZM93.7269 140.306C93.3933 140.755 92.9291 140.98 92.3344 140.98C91.7375 140.98 91.2716 140.756 90.9369 140.307C90.6021 139.859 90.4347 139.213 90.4347 138.37C90.4347 137.806 90.5118 137.328 90.6662 136.936C90.8205 136.544 91.0396 136.246 91.3233 136.043C91.607 135.84 91.944 135.738 92.3344 135.738C92.92 135.738 93.3819 135.964 93.7201 136.417C94.0583 136.869 94.2274 137.519 94.2274 138.366C94.2274 139.209 94.0606 139.856 93.7269 140.306ZM92.3343 140.139C92.0393 140.139 91.8214 140.003 91.6806 139.731C91.5399 139.458 91.4696 139.005 91.4696 138.371C91.4696 137.725 91.5405 137.26 91.6823 136.976C91.8242 136.692 92.0404 136.55 92.3309 136.55C92.6214 136.55 92.8359 136.691 92.9744 136.973C93.1128 137.254 93.1821 137.72 93.1821 138.371C93.1821 139.007 93.114 139.461 92.9778 139.733C92.8416 140.004 92.6271 140.139 92.3343 140.139ZM97.9609 139.776V140.903H97.0042L97.0076 139.776H94.7402V138.93L96.9838 135.809H97.9609V138.913H98.7201V139.776H97.9609ZM97.0077 138.912H95.6594L97.0077 137.045V138.912ZM44.0713 145.568V146.311H43.3393V145.568H44.0713ZM44.0577 150.659V147.016H43.3563V150.659H44.0577ZM47.0859 150.596C46.8782 150.684 46.6313 150.728 46.3454 150.728C46.1002 150.728 45.8704 150.688 45.6559 150.608C45.4414 150.528 45.2621 150.403 45.118 150.231C44.9739 150.06 44.8836 149.84 44.8473 149.573H45.4976C45.5271 149.711 45.5833 149.826 45.6661 149.916C45.749 150.006 45.8489 150.073 45.9657 150.117C46.0826 150.16 46.208 150.182 46.342 150.182C46.5644 150.182 46.7443 150.14 46.8816 150.057C47.0189 149.974 47.0876 149.845 47.0876 149.671C47.0876 149.547 47.0507 149.447 46.9769 149.372C46.9031 149.297 46.7868 149.241 46.6279 149.206L45.9266 149.034C45.6361 148.963 45.4034 148.851 45.2286 148.697C45.0539 148.543 44.9654 148.328 44.9631 148.051C44.9631 147.837 45.0147 147.647 45.118 147.48C45.2213 147.313 45.375 147.182 45.5793 147.087C45.7836 146.992 46.0378 146.945 46.342 146.945C46.7392 146.945 47.0581 147.036 47.2986 147.219C47.5392 147.403 47.6641 147.668 47.6732 148.016H47.0433C47.0206 147.849 46.9474 147.718 46.8237 147.623C46.7 147.528 46.5372 147.48 46.3351 147.48C46.1263 147.48 45.955 147.523 45.821 147.609C45.6871 147.694 45.6202 147.825 45.6202 148.001C45.6202 148.121 45.669 148.216 45.7666 148.285C45.8642 148.354 46.0106 148.411 46.2058 148.456L46.8731 148.628C47.0456 148.675 47.1874 148.737 47.2986 148.813C47.4099 148.89 47.4973 148.974 47.5608 149.065C47.6244 149.157 47.6692 149.252 47.6953 149.351C47.7214 149.449 47.7344 149.542 47.7344 149.629C47.7344 149.859 47.6783 150.056 47.5659 150.219C47.4536 150.382 47.2935 150.508 47.0859 150.596ZM51.3207 150.728C51.5794 150.728 51.8115 150.676 52.0169 150.573C52.2223 150.47 52.3891 150.325 52.5174 150.14C52.6456 149.954 52.7222 149.739 52.7472 149.495H52.1276C52.1094 149.605 52.0674 149.712 52.0016 149.816C51.9358 149.919 51.8467 150.004 51.7343 150.069C51.622 150.135 51.4898 150.168 51.3377 150.168C51.0222 150.168 50.7822 150.048 50.6176 149.809C50.4531 149.569 50.3708 149.247 50.3708 148.843C50.3708 148.402 50.4593 148.074 50.6363 147.861C50.8134 147.647 51.0426 147.54 51.3241 147.54C51.4784 147.54 51.6118 147.571 51.7241 147.633C51.8365 147.696 51.9261 147.778 51.9931 147.882C52.06 147.985 52.1037 148.097 52.1241 148.216H52.754C52.7268 147.963 52.6496 147.741 52.5225 147.551C52.3954 147.36 52.2291 147.212 52.0237 147.105C51.8183 146.998 51.584 146.945 51.3207 146.945C50.9779 146.945 50.6834 147.025 50.4372 147.184C50.1909 147.344 50.0031 147.567 49.8737 147.854C49.7443 148.14 49.6796 148.472 49.6796 148.85C49.6796 149.252 49.7494 149.593 49.889 149.874C50.0286 150.154 50.2221 150.367 50.4695 150.511C50.7169 150.656 51.0006 150.728 51.3207 150.728ZM55.8303 150.49C55.5886 150.649 55.2918 150.728 54.94 150.728C54.6109 150.728 54.3232 150.655 54.0769 150.508C53.8307 150.361 53.64 150.148 53.505 149.868C53.3699 149.589 53.3024 149.251 53.3024 148.854C53.3024 148.471 53.3665 148.136 53.4947 147.85C53.623 147.563 53.8097 147.341 54.0548 147.182C54.2999 147.024 54.5961 146.945 54.9434 146.945C55.2748 146.945 55.5619 147.019 55.8048 147.168C56.0476 147.317 56.236 147.535 56.3699 147.82C56.5038 148.105 56.5708 148.45 56.5708 148.854C56.5708 149.223 56.5078 149.548 56.3818 149.83C56.2559 150.112 56.072 150.332 55.8303 150.49ZM54.9433 150.147C54.7231 150.147 54.545 150.087 54.4088 149.967C54.2726 149.847 54.1739 149.688 54.1126 149.488C54.0513 149.288 54.0207 149.07 54.0207 148.833C54.0207 148.565 54.0553 148.333 54.1245 148.137C54.1937 147.941 54.2964 147.79 54.4326 147.683C54.5688 147.576 54.739 147.522 54.9433 147.522C55.1612 147.522 55.3371 147.581 55.471 147.699C55.6049 147.816 55.702 147.974 55.7621 148.172C55.8223 148.371 55.8523 148.591 55.8523 148.833C55.8523 149.094 55.8183 149.323 55.7502 149.522C55.6821 149.72 55.5805 149.874 55.4455 149.983C55.3104 150.092 55.143 150.147 54.9433 150.147ZM58.025 148.252V150.658H57.2964V147.015H58.0046V147.54C58.1044 147.38 58.2406 147.241 58.4131 147.123C58.5856 147.004 58.808 146.945 59.0804 146.945C59.2075 146.945 59.3363 146.967 59.4668 147.012C59.5973 147.056 59.7176 147.123 59.8277 147.211C59.9378 147.299 60.0246 147.407 60.0882 147.536C60.1994 147.363 60.3481 147.221 60.5342 147.11C60.7203 147 60.9291 146.945 61.1606 146.945C61.2855 146.945 61.4148 146.965 61.5487 147.006C61.6827 147.047 61.8069 147.117 61.9216 147.214C62.0362 147.312 62.1292 147.446 62.2007 147.617C62.2722 147.789 62.308 148.006 62.308 148.269V150.658H61.576V148.35C61.576 148.151 61.5436 147.994 61.479 147.882C61.4143 147.769 61.3303 147.69 61.227 147.644C61.1237 147.598 61.0142 147.575 60.8985 147.575C60.7941 147.575 60.6851 147.596 60.5716 147.639C60.4581 147.681 60.3617 147.751 60.2822 147.85C60.2028 147.949 60.1631 148.082 60.1631 148.252V150.658H59.4345V148.188C59.4345 148.054 59.3999 147.942 59.3306 147.85C59.2614 147.758 59.1752 147.69 59.0719 147.644C58.9686 147.598 58.8659 147.575 58.7638 147.575C58.6503 147.575 58.5368 147.599 58.4233 147.646C58.3098 147.693 58.2151 147.766 58.139 147.866C58.063 147.966 58.025 148.094 58.025 148.252ZM63.9214 151.792V150.031C63.9623 150.11 64.0139 150.191 64.0763 150.272C64.1387 150.353 64.2142 150.428 64.3027 150.497C64.3913 150.567 64.4934 150.622 64.6092 150.665C64.7249 150.707 64.8554 150.728 65.0007 150.728C65.3026 150.728 65.5636 150.655 65.7837 150.508C66.0039 150.361 66.1736 150.144 66.2927 149.858C66.4119 149.571 66.4715 149.217 66.4715 148.794C66.4715 148.374 66.4119 148.027 66.2927 147.753C66.1736 147.48 66.0079 147.276 65.7957 147.144C65.5834 147.011 65.3389 146.945 65.062 146.945C64.9144 146.945 64.7799 146.965 64.6585 147.005C64.5371 147.044 64.4293 147.098 64.3351 147.165C64.2409 147.232 64.1597 147.305 64.0917 147.383C64.0236 147.462 63.9679 147.541 63.9248 147.621L63.918 147.015H63.1894V151.792H63.9214ZM64.3334 149.971C64.4718 150.093 64.6432 150.154 64.8475 150.154C65.1176 150.154 65.3394 150.046 65.5131 149.829C65.6867 149.611 65.7735 149.271 65.7735 148.809C65.7735 148.412 65.6935 148.098 65.5335 147.867C65.3735 147.635 65.1448 147.52 64.8475 147.52C64.541 147.52 64.3095 147.64 64.1529 147.881C63.9963 148.121 63.918 148.431 63.918 148.809C63.918 149.055 63.9526 149.28 64.0218 149.483C64.0911 149.687 64.1949 149.849 64.3334 149.971ZM68.1518 150.707C68.204 150.707 68.2602 150.701 68.3203 150.689C68.3805 150.677 68.4389 150.662 68.4957 150.643V150.164L68.3118 150.157C68.1779 150.145 68.0786 150.095 68.0139 150.006C67.9492 149.916 67.9169 149.787 67.9169 149.618V145.423H67.1985V149.696C67.1985 149.825 67.2093 149.95 67.2309 150.071C67.2524 150.192 67.2961 150.3 67.3619 150.395C67.4278 150.49 67.5237 150.566 67.6496 150.622C67.7756 150.678 67.943 150.707 68.1518 150.707ZM71.3479 150.596C71.1346 150.684 70.911 150.728 70.6772 150.728C70.3436 150.728 70.0496 150.653 69.7954 150.504C69.5412 150.355 69.3432 150.142 69.2013 149.865C69.0595 149.588 68.9885 149.258 68.9885 148.875C68.9885 148.497 69.0532 148.163 69.1826 147.873C69.312 147.583 69.4992 147.356 69.7444 147.191C69.9895 147.027 70.2846 146.945 70.6296 146.945C70.97 146.945 71.2566 147.02 71.4892 147.17C71.7219 147.32 71.8983 147.531 72.0186 147.802C72.1389 148.074 72.1991 148.394 72.1991 148.762V149.012H69.7205C69.7205 149.231 69.7551 149.426 69.8244 149.599C69.8936 149.772 69.9986 149.908 70.1393 150.008C70.28 150.107 70.4548 150.157 70.6636 150.157C70.8724 150.157 71.0534 150.108 71.2066 150.009C71.3598 149.911 71.4603 149.764 71.5079 149.569H72.1821C72.1412 149.818 72.0453 150.029 71.8944 150.203C71.7434 150.377 71.5613 150.508 71.3479 150.596ZM71.5046 148.523H69.7206C69.7206 148.357 69.7541 148.195 69.821 148.037C69.888 147.88 69.9884 147.751 70.1223 147.65C70.2562 147.549 70.4242 147.498 70.6262 147.498C70.8237 147.498 70.9877 147.543 71.1182 147.634C71.2487 147.724 71.3457 147.848 71.4093 148.004C71.4728 148.16 71.5046 148.333 71.5046 148.523ZM74.555 150.662C74.4653 150.676 74.3501 150.683 74.2094 150.683C73.9484 150.683 73.7458 150.647 73.6017 150.574C73.4576 150.501 73.3577 150.396 73.3021 150.259C73.2465 150.121 73.2187 149.955 73.2187 149.76V147.559H72.6467V147.016H73.2391L73.4195 145.945H73.9473V147.013H74.7371V147.559H73.9473L73.9507 149.732C73.9507 149.852 73.9626 149.939 73.9864 149.995C74.0102 150.05 74.0511 150.085 74.109 150.1C74.1668 150.115 74.2457 150.123 74.3456 150.123H74.7575V150.613C74.7122 150.632 74.6446 150.648 74.555 150.662ZM76.9509 150.728C77.1847 150.728 77.4082 150.684 77.6216 150.596C77.8349 150.508 78.0171 150.377 78.168 150.203C78.319 150.029 78.4148 149.818 78.4557 149.569H77.7816C77.7339 149.764 77.6335 149.911 77.4803 150.009C77.3271 150.108 77.1461 150.157 76.9372 150.157C76.7284 150.157 76.5537 150.107 76.4129 150.008C76.2722 149.908 76.1672 149.772 76.098 149.599C76.0288 149.426 75.9942 149.231 75.9942 149.012H78.4727V148.762C78.4727 148.394 78.4126 148.074 78.2923 147.802C78.172 147.531 77.9955 147.32 77.7629 147.17C77.5302 147.02 77.2437 146.945 76.9032 146.945C76.5582 146.945 76.2631 147.027 76.018 147.191C75.7729 147.356 75.5856 147.583 75.4562 147.873C75.3269 148.163 75.2622 148.497 75.2622 148.875C75.2622 149.258 75.3331 149.588 75.475 149.865C75.6168 150.142 75.8149 150.355 76.0691 150.504C76.3233 150.653 76.6172 150.728 76.9509 150.728ZM75.9942 148.523H77.7782C77.7782 148.333 77.7465 148.16 77.6829 148.004C77.6194 147.848 77.5223 147.724 77.3918 147.634C77.2613 147.543 77.0973 147.498 76.8998 147.498C76.6978 147.498 76.5299 147.549 76.396 147.65C76.2621 147.751 76.1616 147.88 76.0947 148.037C76.0277 148.195 75.9942 148.357 75.9942 148.523ZM80.5172 150.728C80.7124 150.728 80.8792 150.701 81.0177 150.647C81.1561 150.593 81.2702 150.524 81.3598 150.439C81.4495 150.354 81.5204 150.265 81.5726 150.171C81.6248 150.077 81.6634 149.99 81.6884 149.911L81.7701 150.657H82.3148V145.423H81.5829V147.568C81.5488 147.505 81.5006 147.436 81.4382 147.364C81.3757 147.291 81.2974 147.223 81.2032 147.159C81.109 147.096 81.0001 147.044 80.8764 147.004C80.7527 146.964 80.6114 146.945 80.4525 146.945C80.1393 146.945 79.8766 147.022 79.6644 147.177C79.4521 147.332 79.2927 147.55 79.186 147.83C79.0793 148.111 79.026 148.44 79.026 148.819C79.026 149.436 79.1588 149.909 79.4243 150.236C79.6899 150.564 80.0542 150.728 80.5172 150.728ZM79.9844 149.809C80.1399 150.044 80.364 150.162 80.6568 150.162C80.9837 150.162 81.2197 150.055 81.365 149.843C81.5103 149.63 81.5829 149.281 81.5829 148.795C81.5806 148.52 81.5477 148.287 81.4842 148.097C81.4206 147.907 81.3224 147.763 81.1897 147.666C81.0569 147.568 80.8827 147.52 80.667 147.52C80.3969 147.52 80.1768 147.62 80.0066 147.821C79.8363 148.022 79.7512 148.346 79.7512 148.795C79.7512 149.236 79.829 149.574 79.9844 149.809ZM85.7221 150.728C85.974 150.728 86.2005 150.675 86.4013 150.568C86.6022 150.461 86.7684 150.268 86.9001 149.988L86.958 150.658H87.5742V148.111C87.5742 147.862 87.5237 147.65 87.4227 147.477C87.3217 147.303 87.1679 147.171 86.9614 147.08C86.7548 146.99 86.4915 146.945 86.1715 146.945C85.8833 146.945 85.6324 146.987 85.4191 147.071C85.2057 147.156 85.0383 147.281 84.9169 147.447C84.7955 147.612 84.728 147.816 84.7143 148.058H85.3476C85.393 147.854 85.4889 147.707 85.6353 147.617C85.7817 147.528 85.9491 147.484 86.1375 147.484C86.3871 147.481 86.5721 147.54 86.6924 147.66C86.8127 147.78 86.8729 147.944 86.8729 148.153V148.417L86.2941 148.435C85.6881 148.446 85.2466 148.552 84.9697 148.752C84.6928 148.951 84.5543 149.253 84.5543 149.657C84.5543 149.883 84.6043 150.075 84.7041 150.235C84.804 150.395 84.9419 150.517 85.1178 150.601C85.2937 150.686 85.4951 150.728 85.7221 150.728ZM85.4532 150.04C85.5848 150.149 85.7505 150.204 85.9503 150.204C86.0615 150.204 86.1716 150.183 86.2805 150.142C86.3895 150.101 86.4882 150.044 86.5767 149.973C86.6652 149.901 86.7362 149.821 86.7895 149.732C86.8428 149.642 86.8706 149.551 86.8729 149.457V148.854L86.3963 148.865C86.1534 148.867 85.9474 148.893 85.7783 148.942C85.6092 148.992 85.4799 149.068 85.3902 149.171C85.3006 149.275 85.2557 149.412 85.2557 149.584C85.2557 149.778 85.3216 149.931 85.4532 150.04ZM89.2725 150.658V148.252C89.2725 148.102 89.3122 147.977 89.3917 147.877C89.4711 147.777 89.5755 147.703 89.7049 147.653C89.8343 147.604 89.9704 147.579 90.1134 147.579C90.3268 147.579 90.501 147.643 90.636 147.77C90.7711 147.896 90.8386 148.09 90.8386 148.351V150.658H91.5672V148.27C91.5672 147.967 91.5105 147.72 91.397 147.528C91.2835 147.337 91.1331 147.196 90.9459 147.105C90.7586 147.015 90.5549 146.97 90.3347 146.97C90.1486 146.97 89.9846 146.997 89.8428 147.051C89.7009 147.105 89.5818 147.175 89.4853 147.262C89.3888 147.349 89.3122 147.442 89.2555 147.541V147.016H88.5439V150.658H89.2725ZM94.2341 150.647C94.0956 150.701 93.9288 150.728 93.7336 150.728C93.2706 150.728 92.9063 150.564 92.6407 150.236C92.3752 149.909 92.2424 149.436 92.2424 148.819C92.2424 148.44 92.2957 148.111 92.4024 147.83C92.5091 147.55 92.6685 147.332 92.8808 147.177C93.093 147.022 93.3557 146.945 93.6689 146.945C93.8278 146.945 93.9691 146.964 94.0928 147.004C94.2165 147.044 94.3254 147.096 94.4196 147.159C94.5138 147.223 94.5921 147.291 94.6546 147.364C94.717 147.436 94.7652 147.505 94.7992 147.568V145.423H95.5312V150.657H94.9865L94.9048 149.911C94.8798 149.99 94.8412 150.077 94.789 150.171C94.7368 150.265 94.6659 150.354 94.5762 150.439C94.4866 150.524 94.3725 150.593 94.2341 150.647ZM93.8731 150.162C93.5803 150.162 93.3562 150.044 93.2007 149.809C93.0452 149.574 92.9675 149.236 92.9675 148.795C92.9675 148.346 93.0526 148.022 93.2228 147.821C93.3931 147.62 93.6132 147.52 93.8833 147.52C94.0989 147.52 94.2732 147.568 94.4059 147.666C94.5387 147.763 94.6369 147.907 94.7004 148.097C94.764 148.287 94.7969 148.52 94.7992 148.795C94.7992 149.281 94.7265 149.63 94.5813 149.843C94.436 150.055 94.2 150.162 93.8731 150.162ZM34.037 159.787V161.548H33.305V156.771H34.0336L34.0404 157.377C34.0835 157.297 34.1391 157.218 34.2072 157.139C34.2753 157.061 34.3565 156.988 34.4506 156.921C34.5448 156.854 34.6527 156.801 34.7741 156.761C34.8955 156.721 35.03 156.701 35.1775 156.701C35.4544 156.701 35.699 156.767 35.9112 156.9C36.1234 157.032 36.2891 157.236 36.4083 157.509C36.5275 157.783 36.587 158.13 36.587 158.55C36.587 158.973 36.5275 159.327 36.4083 159.614C36.2891 159.9 36.1195 160.117 35.8993 160.264C35.6791 160.411 35.4181 160.484 35.1162 160.484C34.971 160.484 34.8405 160.463 34.7247 160.421C34.609 160.378 34.5068 160.323 34.4183 160.253C34.3298 160.184 34.2543 160.109 34.1919 160.028C34.1295 159.947 34.0778 159.866 34.037 159.787ZM34.963 159.91C34.7587 159.91 34.5874 159.848 34.4489 159.726C34.3105 159.604 34.2066 159.442 34.1374 159.238C34.0682 159.035 34.0336 158.81 34.0336 158.564C34.0336 158.186 34.1119 157.876 34.2685 157.636C34.4251 157.395 34.6566 157.275 34.963 157.275C35.2604 157.275 35.489 157.39 35.6491 157.622C35.8091 157.853 35.8891 158.167 35.8891 158.564C35.8891 159.027 35.8023 159.366 35.6286 159.584C35.455 159.801 35.2331 159.91 34.963 159.91ZM38.0427 158.222V160.414H37.3141V156.771H38.012V157.518C38.0711 157.339 38.1533 157.19 38.2589 157.069C38.3644 156.948 38.4875 156.856 38.6283 156.794C38.769 156.732 38.9177 156.701 39.0743 156.701C39.1219 156.701 39.1673 156.704 39.2105 156.71C39.2536 156.715 39.2876 156.725 39.3126 156.739V157.465C39.2831 157.451 39.2451 157.442 39.1985 157.437C39.152 157.432 39.1117 157.429 39.0777 157.426C38.9233 157.415 38.7826 157.423 38.6555 157.451C38.5284 157.479 38.4189 157.526 38.327 157.592C38.235 157.658 38.1647 157.743 38.1159 157.849C38.0671 157.955 38.0427 158.079 38.0427 158.222ZM41.3049 160.484C41.6567 160.484 41.9535 160.405 42.1952 160.246C42.437 160.088 42.6208 159.868 42.7468 159.586C42.8727 159.304 42.9357 158.979 42.9357 158.61C42.9357 158.206 42.8688 157.861 42.7349 157.576C42.6009 157.291 42.4126 157.074 42.1697 156.924C41.9268 156.775 41.6397 156.701 41.3083 156.701C40.9611 156.701 40.6649 156.78 40.4197 156.938C40.1746 157.097 39.9879 157.32 39.8597 157.606C39.7314 157.893 39.6673 158.227 39.6673 158.61C39.6673 159.007 39.7348 159.345 39.8699 159.624C40.0049 159.904 40.1956 160.117 40.4419 160.264C40.6881 160.411 40.9758 160.484 41.3049 160.484ZM40.7738 159.722C40.91 159.842 41.0882 159.902 41.3084 159.902C41.5081 159.902 41.6755 159.847 41.8105 159.738C41.9456 159.629 42.0472 159.475 42.1152 159.277C42.1833 159.078 42.2174 158.849 42.2174 158.588C42.2174 158.346 42.1873 158.126 42.1272 157.927C42.067 157.729 41.97 157.571 41.8361 157.454C41.7022 157.336 41.5263 157.277 41.3084 157.277C41.1041 157.277 40.9339 157.331 40.7977 157.438C40.6615 157.545 40.5588 157.696 40.4896 157.892C40.4203 158.088 40.3857 158.32 40.3857 158.588C40.3857 158.825 40.4164 159.044 40.4776 159.243C40.5389 159.443 40.6377 159.602 40.7738 159.722ZM45.0945 160.484C45.3533 160.484 45.5853 160.432 45.7908 160.329C45.9962 160.226 46.163 160.081 46.2912 159.896C46.4195 159.71 46.4961 159.495 46.521 159.251H45.9014C45.8832 159.361 45.8413 159.468 45.7754 159.572C45.7096 159.675 45.6205 159.76 45.5082 159.825C45.3958 159.891 45.2636 159.924 45.1115 159.924C44.796 159.924 44.556 159.804 44.3915 159.565C44.2269 159.325 44.1446 159.003 44.1446 158.599C44.1446 158.158 44.2332 157.83 44.4102 157.617C44.5872 157.403 44.8165 157.296 45.0979 157.296C45.2523 157.296 45.3856 157.327 45.498 157.389C45.6103 157.452 45.7 157.534 45.7669 157.638C45.8339 157.741 45.8776 157.853 45.898 157.972H46.5279C46.5006 157.719 46.4234 157.497 46.2963 157.307C46.1692 157.116 46.003 156.968 45.7976 156.861C45.5922 156.754 45.3578 156.701 45.0945 156.701C44.7518 156.701 44.4573 156.781 44.211 156.94C43.9648 157.1 43.7769 157.323 43.6476 157.61C43.5182 157.896 43.4535 158.228 43.4535 158.606C43.4535 159.008 43.5233 159.349 43.6629 159.63C43.8025 159.91 43.996 160.123 44.2434 160.267C44.4908 160.412 44.7745 160.484 45.0945 160.484ZM49.4629 160.352C49.2495 160.44 49.026 160.484 48.7922 160.484C48.4585 160.484 48.1646 160.409 47.9104 160.26C47.6562 160.111 47.4582 159.898 47.3163 159.621C47.1744 159.344 47.1035 159.014 47.1035 158.631C47.1035 158.253 47.1682 157.919 47.2976 157.629C47.4269 157.339 47.6142 157.112 47.8593 156.947C48.1045 156.783 48.3995 156.701 48.7445 156.701C49.085 156.701 49.3715 156.776 49.6042 156.926C49.8368 157.076 50.0133 157.287 50.1336 157.558C50.2539 157.83 50.3141 158.15 50.3141 158.518V158.768H47.8355C47.8355 158.987 47.8701 159.182 47.9393 159.355C48.0086 159.528 48.1135 159.664 48.2543 159.764C48.395 159.863 48.5698 159.913 48.7786 159.913C48.9874 159.913 49.1684 159.864 49.3216 159.765C49.4748 159.667 49.5753 159.52 49.6229 159.325H50.297C50.2562 159.574 50.1603 159.785 50.0093 159.959C49.8584 160.133 49.6763 160.264 49.4629 160.352ZM49.6196 158.278H47.8355C47.8355 158.112 47.869 157.95 47.936 157.792C48.0029 157.635 48.1034 157.506 48.2373 157.405C48.3712 157.304 48.5392 157.253 48.7412 157.253C48.9386 157.253 49.1026 157.298 49.2331 157.389C49.3636 157.479 49.4607 157.603 49.5242 157.759C49.5878 157.915 49.6196 158.088 49.6196 158.278ZM53.0854 160.352C52.8777 160.44 52.6309 160.484 52.3449 160.484C52.0998 160.484 51.8699 160.444 51.6555 160.364C51.441 160.284 51.2617 160.159 51.1175 159.987C50.9734 159.816 50.8832 159.596 50.8469 159.329H51.4971C51.5266 159.467 51.5828 159.582 51.6657 159.672C51.7485 159.762 51.8484 159.829 51.9653 159.873C52.0822 159.916 52.2076 159.938 52.3415 159.938C52.5639 159.938 52.7438 159.896 52.8811 159.813C53.0184 159.73 53.0871 159.601 53.0871 159.427C53.0871 159.303 53.0502 159.203 52.9764 159.128C52.9027 159.053 52.7863 158.997 52.6275 158.962L51.9261 158.79C51.6356 158.719 51.4029 158.607 51.2282 158.453C51.0534 158.299 50.9649 158.084 50.9626 157.807C50.9626 157.593 51.0142 157.403 51.1175 157.236C51.2208 157.069 51.3746 156.938 51.5788 156.843C51.7831 156.748 52.0373 156.701 52.3415 156.701C52.7387 156.701 53.0576 156.792 53.2982 156.975C53.5388 157.159 53.6636 157.424 53.6727 157.772H53.0428C53.0201 157.605 52.9469 157.474 52.8232 157.379C52.6995 157.284 52.5367 157.236 52.3347 157.236C52.1259 157.236 51.9545 157.279 51.8206 157.365C51.6867 157.45 51.6197 157.581 51.6197 157.758C51.6197 157.877 51.6685 157.972 51.7661 158.041C51.8637 158.11 52.0101 158.167 52.2053 158.212L52.8726 158.385C53.0451 158.432 53.187 158.493 53.2982 158.569C53.4094 158.646 53.4968 158.73 53.5603 158.821C53.6239 158.913 53.6687 159.008 53.6948 159.107C53.7209 159.205 53.734 159.298 53.734 159.385C53.734 159.615 53.6778 159.812 53.5654 159.975C53.4531 160.138 53.2931 160.264 53.0854 160.352ZM55.7446 160.484C56.0306 160.484 56.2774 160.44 56.4851 160.352C56.6928 160.264 56.8528 160.138 56.9651 159.975C57.0775 159.812 57.1337 159.615 57.1337 159.385C57.1337 159.298 57.1206 159.205 57.0945 159.107C57.0684 159.008 57.0236 158.913 56.96 158.821C56.8965 158.73 56.8091 158.646 56.6979 158.569C56.5867 158.493 56.4448 158.432 56.2723 158.385L55.605 158.212C55.4098 158.167 55.2634 158.11 55.1658 158.041C55.0682 157.972 55.0194 157.877 55.0194 157.758C55.0194 157.581 55.0864 157.45 55.2203 157.365C55.3542 157.279 55.5256 157.236 55.7344 157.236C55.9364 157.236 56.0992 157.284 56.2229 157.379C56.3466 157.474 56.4198 157.605 56.4425 157.772H57.0724C57.0633 157.424 56.9385 157.159 56.6979 156.975C56.4573 156.792 56.1384 156.701 55.7412 156.701C55.437 156.701 55.1828 156.748 54.9785 156.843C54.7743 156.938 54.6205 157.069 54.5172 157.236C54.414 157.403 54.3623 157.593 54.3623 157.807C54.3646 158.084 54.4531 158.299 54.6279 158.453C54.8026 158.607 55.0353 158.719 55.3258 158.79L56.0272 158.962C56.1861 158.997 56.3024 159.053 56.3761 159.128C56.4499 159.203 56.4868 159.303 56.4868 159.427C56.4868 159.601 56.4181 159.73 56.2808 159.813C56.1435 159.896 55.9636 159.938 55.7412 159.938C55.6073 159.938 55.4819 159.916 55.365 159.873C55.2481 159.829 55.1482 159.762 55.0654 159.672C54.9825 159.582 54.9263 159.467 54.8968 159.329H54.2466C54.2829 159.596 54.3731 159.816 54.5172 159.987C54.6614 160.159 54.8407 160.284 55.0552 160.364C55.2696 160.444 55.4995 160.484 55.7446 160.484ZM60.0873 160.352C59.8739 160.44 59.6503 160.484 59.4165 160.484C59.0829 160.484 58.789 160.409 58.5348 160.26C58.2805 160.111 58.0825 159.898 57.9407 159.621C57.7988 159.344 57.7279 159.014 57.7279 158.631C57.7279 158.253 57.7926 157.919 57.9219 157.629C58.0513 157.339 58.2386 157.112 58.4837 156.947C58.7288 156.783 59.0239 156.701 59.3689 156.701C59.7093 156.701 59.9959 156.776 60.2285 156.926C60.4612 157.076 60.6377 157.287 60.758 157.558C60.8783 157.83 60.9384 158.15 60.9384 158.518V158.768H58.4599C58.4599 158.987 58.4945 159.182 58.5637 159.355C58.6329 159.528 58.7379 159.664 58.8786 159.764C59.0193 159.863 59.1941 159.913 59.4029 159.913C59.6117 159.913 59.7928 159.864 59.946 159.765C60.0992 159.667 60.1996 159.52 60.2473 159.325H60.9214C60.8805 159.574 60.7846 159.785 60.6337 159.959C60.4828 160.133 60.3006 160.264 60.0873 160.352ZM60.2438 158.278H58.4598C58.4598 158.112 58.4933 157.95 58.5602 157.792C58.6272 157.635 58.7276 157.506 58.8615 157.405C58.9954 157.304 59.1634 157.253 59.3654 157.253C59.5629 157.253 59.7269 157.298 59.8574 157.389C59.9879 157.479 60.0849 157.603 60.1485 157.759C60.212 157.915 60.2438 158.088 60.2438 158.278ZM63.4835 160.403C63.345 160.457 63.1782 160.484 62.983 160.484C62.52 160.484 62.1557 160.32 61.8901 159.992C61.6246 159.665 61.4918 159.192 61.4918 158.575C61.4918 158.196 61.5451 157.867 61.6518 157.586C61.7585 157.306 61.9179 157.088 62.1302 156.933C62.3424 156.778 62.6051 156.701 62.9183 156.701C63.0772 156.701 63.2185 156.72 63.3422 156.76C63.4659 156.8 63.5748 156.852 63.669 156.915C63.7632 156.979 63.8415 157.047 63.904 157.12C63.9664 157.193 64.0146 157.261 64.0486 157.324V155.179H64.7806V160.413H64.2359L64.1542 159.667C64.1292 159.746 64.0906 159.833 64.0384 159.927C63.9862 160.021 63.9153 160.11 63.8256 160.195C63.736 160.28 63.6219 160.349 63.4835 160.403ZM63.1225 159.917C62.8297 159.917 62.6056 159.799 62.4501 159.564C62.2946 159.329 62.2169 158.991 62.2169 158.55C62.2169 158.101 62.302 157.777 62.4722 157.576C62.6425 157.375 62.8626 157.275 63.1327 157.275C63.3484 157.275 63.5226 157.323 63.6553 157.421C63.7881 157.518 63.8863 157.662 63.9498 157.852C64.0134 158.043 64.0463 158.275 64.0486 158.55C64.0486 159.036 63.9759 159.385 63.8307 159.598C63.6854 159.81 63.4494 159.917 63.1225 159.917ZM69.2314 160.352C69.0237 160.44 68.7769 160.484 68.4909 160.484C68.2457 160.484 68.0159 160.444 67.8014 160.364C67.5869 160.284 67.4076 160.159 67.2635 159.987C67.1194 159.816 67.0292 159.596 66.9928 159.329H67.6431C67.6726 159.467 67.7288 159.582 67.8116 159.672C67.8945 159.762 67.9944 159.829 68.1113 159.873C68.2281 159.916 68.3535 159.938 68.4875 159.938C68.7099 159.938 68.8898 159.896 69.0271 159.813C69.1644 159.73 69.2331 159.601 69.2331 159.427C69.2331 159.303 69.1962 159.203 69.1224 159.128C69.0487 159.053 68.9323 158.997 68.7735 158.962L68.0721 158.79C67.7816 158.719 67.5489 158.607 67.3742 158.453C67.1994 158.299 67.1109 158.084 67.1086 157.807C67.1086 157.593 67.1602 157.403 67.2635 157.236C67.3668 157.069 67.5206 156.938 67.7248 156.843C67.9291 156.748 68.1833 156.701 68.4875 156.701C68.8847 156.701 69.2036 156.792 69.4442 156.975C69.6847 157.159 69.8096 157.424 69.8187 157.772H69.1888C69.1661 157.605 69.0929 157.474 68.9692 157.379C68.8455 157.284 68.6827 157.236 68.4807 157.236C68.2718 157.236 68.1005 157.279 67.9666 157.365C67.8326 157.45 67.7657 157.581 67.7657 157.758C67.7657 157.877 67.8145 157.972 67.9121 158.041C68.0097 158.11 68.1561 158.167 68.3513 158.212L69.0186 158.385C69.1911 158.432 69.3329 158.493 69.4442 158.569C69.5554 158.646 69.6428 158.73 69.7063 158.821C69.7699 158.913 69.8147 159.008 69.8408 159.107C69.8669 159.205 69.8799 159.298 69.8799 159.385C69.8799 159.615 69.8238 159.812 69.7114 159.975C69.5991 160.138 69.4391 160.264 69.2314 160.352ZM71.9484 160.484C72.1095 160.487 72.2622 160.463 72.4063 160.412C72.5504 160.362 72.6753 160.279 72.7808 160.166C72.8863 160.052 72.9595 159.9 73.0004 159.709L73.0821 160.414H73.6473V156.771H72.9221V159.142C72.9221 159.393 72.8495 159.584 72.7042 159.715C72.5589 159.845 72.366 159.91 72.1254 159.91C71.8598 159.91 71.6612 159.842 71.5296 159.706C71.398 159.57 71.3321 159.392 71.3321 159.174V156.771H70.6001V159.255C70.6001 159.457 70.637 159.634 70.7108 159.787C70.7846 159.939 70.8844 160.067 71.0104 160.171C71.1364 160.274 71.2799 160.352 71.4411 160.403C71.6022 160.455 71.7713 160.482 71.9484 160.484ZM76.6592 160.329C76.4538 160.432 76.2217 160.484 75.963 160.484C75.6429 160.484 75.3592 160.412 75.1118 160.267C74.8644 160.123 74.6709 159.91 74.5313 159.63C74.3918 159.349 74.322 159.008 74.322 158.606C74.322 158.228 74.3866 157.896 74.516 157.61C74.6454 157.323 74.8332 157.1 75.0795 156.94C75.3257 156.781 75.6202 156.701 75.963 156.701C76.2263 156.701 76.4606 156.754 76.666 156.861C76.8714 156.968 77.0377 157.116 77.1648 157.307C77.2919 157.497 77.3691 157.719 77.3963 157.972H76.7665C76.746 157.853 76.7023 157.741 76.6354 157.638C76.5684 157.534 76.4788 157.452 76.3664 157.389C76.2541 157.327 76.1207 157.296 75.9664 157.296C75.6849 157.296 75.4557 157.403 75.2786 157.617C75.1016 157.83 75.0131 158.158 75.0131 158.599C75.0131 159.003 75.0954 159.325 75.2599 159.565C75.4245 159.804 75.6645 159.924 75.98 159.924C76.1321 159.924 76.2643 159.891 76.3766 159.825C76.489 159.76 76.5781 159.675 76.6439 159.572C76.7097 159.468 76.7517 159.361 76.7699 159.251H77.3895C77.3645 159.495 77.2879 159.71 77.1597 159.896C77.0314 160.081 76.8646 160.226 76.6592 160.329ZM79.5857 160.484C79.8445 160.484 80.0765 160.432 80.282 160.329C80.4874 160.226 80.6542 160.081 80.7824 159.896C80.9107 159.71 80.9873 159.495 81.0122 159.251H80.3926C80.3744 159.361 80.3325 159.468 80.2666 159.572C80.2008 159.675 80.1117 159.76 79.9994 159.825C79.887 159.891 79.7548 159.924 79.6027 159.924C79.2872 159.924 79.0472 159.804 78.8827 159.565C78.7181 159.325 78.6358 159.003 78.6358 158.599C78.6358 158.158 78.7243 157.83 78.9014 157.617C79.0784 157.403 79.3077 157.296 79.5891 157.296C79.7435 157.296 79.8768 157.327 79.9892 157.389C80.1015 157.452 80.1912 157.534 80.2581 157.638C80.3251 157.741 80.3688 157.853 80.3892 157.972H81.019C80.9918 157.719 80.9146 157.497 80.7875 157.307C80.6604 157.116 80.4942 156.968 80.2888 156.861C80.0833 156.754 79.849 156.701 79.5857 156.701C79.243 156.701 78.9485 156.781 78.7022 156.94C78.4559 157.1 78.2681 157.323 78.1387 157.61C78.0094 157.896 77.9447 158.228 77.9447 158.606C77.9447 159.008 78.0145 159.349 78.1541 159.63C78.2937 159.91 78.4872 160.123 78.7346 160.267C78.982 160.412 79.2657 160.484 79.5857 160.484ZM83.9541 160.352C83.7407 160.44 83.5172 160.484 83.2834 160.484C82.9497 160.484 82.6558 160.409 82.4016 160.26C82.1474 160.111 81.9494 159.898 81.8075 159.621C81.6656 159.344 81.5947 159.014 81.5947 158.631C81.5947 158.253 81.6594 157.919 81.7888 157.629C81.9181 157.339 82.1054 157.112 82.3505 156.947C82.5957 156.783 82.8907 156.701 83.2357 156.701C83.5762 156.701 83.8627 156.776 84.0954 156.926C84.328 157.076 84.5045 157.287 84.6248 157.558C84.7451 157.83 84.8052 158.15 84.8052 158.518V158.768H82.3267C82.3267 158.987 82.3613 159.182 82.4305 159.355C82.4998 159.528 82.6047 159.664 82.7455 159.764C82.8862 159.863 83.061 159.913 83.2698 159.913C83.4786 159.913 83.6596 159.864 83.8128 159.765C83.966 159.667 84.0664 159.52 84.1141 159.325H84.7882C84.7474 159.574 84.6515 159.785 84.5005 159.959C84.3496 160.133 84.1674 160.264 83.9541 160.352ZM84.1106 158.278H82.3266C82.3266 158.112 82.3601 157.95 82.4271 157.792C82.494 157.635 82.5945 157.506 82.7284 157.405C82.8623 157.304 83.0302 157.253 83.2322 157.253C83.4297 157.253 83.5937 157.298 83.7242 157.389C83.8547 157.479 83.9518 157.603 84.0153 157.759C84.0789 157.915 84.1106 158.088 84.1106 158.278ZM87.5765 160.352C87.3688 160.44 87.1219 160.484 86.836 160.484C86.5908 160.484 86.361 160.444 86.1465 160.364C85.932 160.284 85.7527 160.159 85.6086 159.987C85.4645 159.816 85.3742 159.596 85.3379 159.329H85.9882C86.0177 159.467 86.0739 159.582 86.1567 159.672C86.2396 159.762 86.3395 159.829 86.4563 159.873C86.5732 159.916 86.6986 159.938 86.8326 159.938C87.055 159.938 87.2349 159.896 87.3722 159.813C87.5095 159.73 87.5782 159.601 87.5782 159.427C87.5782 159.303 87.5413 159.203 87.4675 159.128C87.3937 159.053 87.2774 158.997 87.1185 158.962L86.4172 158.79C86.1267 158.719 85.894 158.607 85.7192 158.453C85.5445 158.299 85.456 158.084 85.4537 157.807C85.4537 157.593 85.5053 157.403 85.6086 157.236C85.7119 157.069 85.8656 156.938 86.0699 156.843C86.2742 156.748 86.5284 156.701 86.8326 156.701C87.2298 156.701 87.5487 156.792 87.7892 156.975C88.0298 157.159 88.1547 157.424 88.1637 157.772H87.5339C87.5112 157.605 87.438 157.474 87.3143 157.379C87.1906 157.284 87.0278 157.236 86.8257 157.236C86.6169 157.236 86.4456 157.279 86.3116 157.365C86.1777 157.45 86.1108 157.581 86.1108 157.758C86.1108 157.877 86.1596 157.972 86.2572 158.041C86.3548 158.11 86.5012 158.167 86.6964 158.212L87.3637 158.385C87.5362 158.432 87.678 158.493 87.7892 158.569C87.9005 158.646 87.9878 158.73 88.0514 158.821C88.115 158.913 88.1598 159.008 88.1859 159.107C88.212 159.205 88.225 159.298 88.225 159.385C88.225 159.615 88.1689 159.812 88.0565 159.975C87.9442 160.138 87.7841 160.264 87.5765 160.352ZM90.2355 160.484C90.5215 160.484 90.7684 160.44 90.976 160.352C91.1837 160.264 91.3437 160.138 91.4561 159.975C91.5684 159.812 91.6246 159.615 91.6246 159.385C91.6246 159.298 91.6116 159.205 91.5855 159.107C91.5594 159.008 91.5145 158.913 91.451 158.821C91.3874 158.73 91.3 158.646 91.1888 158.569C91.0776 158.493 90.9358 158.432 90.7633 158.385L90.096 158.212C89.9008 158.167 89.7544 158.11 89.6568 158.041C89.5592 157.972 89.5104 157.877 89.5104 157.758C89.5104 157.581 89.5773 157.45 89.7112 157.365C89.8451 157.279 90.0165 157.236 90.2253 157.236C90.4273 157.236 90.5902 157.284 90.7139 157.379C90.8376 157.474 90.9108 157.605 90.9335 157.772H91.5633C91.5543 157.424 91.4294 157.159 91.1888 156.975C90.9482 156.792 90.6293 156.701 90.2321 156.701C89.928 156.701 89.6738 156.748 89.4695 156.843C89.2652 156.938 89.1115 157.069 89.0082 157.236C88.9049 157.403 88.8533 157.593 88.8533 157.807C88.8555 158.084 88.9441 158.299 89.1188 158.453C89.2936 158.607 89.5262 158.719 89.8168 158.79L90.5181 158.962C90.677 158.997 90.7933 159.053 90.8671 159.128C90.9409 159.203 90.9777 159.303 90.9777 159.427C90.9777 159.601 90.9091 159.73 90.7718 159.813C90.6344 159.896 90.4546 159.938 90.2321 159.938C90.0982 159.938 89.9728 159.916 89.8559 159.873C89.739 159.829 89.6392 159.762 89.5563 159.672C89.4735 159.582 89.4173 159.467 89.3878 159.329H88.7375C88.7738 159.596 88.8641 159.816 89.0082 159.987C89.1523 160.159 89.3316 160.284 89.5461 160.364C89.7606 160.444 89.9904 160.484 90.2355 160.484ZM93.6082 157.312V160.412H92.8762V157.312H92.1578V156.77H92.8762V156.217C92.8762 155.925 92.9511 155.703 93.1009 155.549C93.2507 155.395 93.4708 155.318 93.7614 155.318H94.4627L94.4661 155.84H93.9588C93.8181 155.84 93.7222 155.878 93.6711 155.954C93.6201 156.031 93.5945 156.147 93.5945 156.305V156.77H94.4321V157.312H93.6082ZM96.3956 160.484C96.5568 160.487 96.7094 160.463 96.8536 160.412C96.9977 160.362 97.1225 160.279 97.2281 160.166C97.3336 160.052 97.4068 159.9 97.4477 159.709L97.5294 160.414H98.0945V156.771H97.3694V159.142C97.3694 159.393 97.2967 159.584 97.1515 159.715C97.0062 159.845 96.8133 159.91 96.5727 159.91C96.3071 159.91 96.1085 159.842 95.9769 159.706C95.8452 159.57 95.7794 159.392 95.7794 159.174V156.771H95.0474V159.255C95.0474 159.457 95.0843 159.634 95.1581 159.787C95.2318 159.939 95.3317 160.067 95.4577 160.171C95.5836 160.274 95.7272 160.352 95.8884 160.403C96.0495 160.455 96.2186 160.482 96.3956 160.484ZM100.136 160.445C100.076 160.457 100.02 160.463 99.9678 160.463C99.759 160.463 99.5916 160.435 99.4656 160.378C99.3397 160.322 99.2438 160.246 99.1779 160.151C99.1121 160.056 99.0684 159.948 99.0469 159.827C99.0253 159.706 99.0145 159.581 99.0145 159.452V155.179H99.7329V159.374C99.7329 159.543 99.7652 159.672 99.8299 159.762C99.8946 159.851 99.9939 159.901 100.128 159.913L100.312 159.92V160.399C100.255 160.418 100.196 160.433 100.136 160.445ZM101.891 160.463C101.943 160.463 101.999 160.457 102.059 160.445C102.119 160.433 102.178 160.418 102.234 160.399V159.92L102.051 159.913C101.917 159.901 101.817 159.851 101.753 159.762C101.688 159.672 101.656 159.543 101.656 159.374V155.179H100.937V159.452C100.937 159.581 100.948 159.706 100.97 159.827C100.991 159.948 101.035 160.056 101.101 160.151C101.167 160.246 101.262 160.322 101.388 160.378C101.514 160.435 101.682 160.463 101.891 160.463ZM103.684 161.495C103.541 161.549 103.385 161.576 103.217 161.576C103.002 161.576 102.853 161.56 102.77 161.527L102.645 161.478V160.992L103.003 160.999C103.139 161.006 103.251 160.997 103.338 160.974C103.426 160.95 103.495 160.918 103.546 160.877C103.597 160.836 103.636 160.792 103.663 160.745C103.691 160.698 103.711 160.655 103.725 160.615L103.834 160.308L102.462 156.771H103.19L104.178 159.463L105.158 156.771H105.873L104.406 160.618C104.306 160.872 104.196 161.068 104.077 161.206C103.958 161.345 103.827 161.441 103.684 161.495Z" fill="#36536B"/>
<path d="M83.2644 111.638C83.2644 120.019 76.6983 126.813 68.5985 126.813C60.4987 126.813 53.9325 120.019 53.9325 111.638C53.9325 103.258 60.4987 96.464 68.5985 96.464C76.6983 96.464 83.2644 103.258 83.2644 111.638Z" fill="#BA4270"/>
<path d="M35.0761 180.469C35.0761 175.979 38.7156 172.34 43.2053 172.34H95.5628C100.052 172.34 103.692 175.979 103.692 180.469C103.692 184.958 100.052 188.598 95.5627 188.598H43.2052C38.7156 188.598 35.0761 184.958 35.0761 180.469Z" fill="#BA4270"/>
<path fill-rule="evenodd" clip-rule="evenodd" d="M61.9409 182.372C61.6173 182.549 61.2067 182.637 60.7093 182.637H59.4936V178.327H60.0136C60.1452 178.327 60.2767 178.328 60.4083 178.329C60.5398 178.33 60.6498 178.331 60.7381 178.333C61.2432 178.345 61.6552 178.438 61.974 178.613C62.2928 178.788 62.5266 179.033 62.6755 179.347C62.8243 179.661 62.8987 180.032 62.8987 180.461C62.8987 180.908 62.82 181.294 62.6625 181.619C62.505 181.944 62.2645 182.195 61.9409 182.372ZM60.3405 181.933H60.7265C60.9647 181.933 61.1812 181.885 61.3762 181.79C61.5711 181.695 61.7271 181.539 61.8443 181.322C61.9615 181.106 62.02 180.816 62.02 180.455C62.02 180.119 61.9682 179.846 61.8645 179.637C61.7608 179.427 61.6129 179.273 61.4208 179.176C61.2288 179.079 61.0012 179.03 60.7381 179.03H60.3405V181.933ZM64.3467 179.114V178.33H63.5285V179.114H64.3467ZM64.338 179.555V182.637H63.5343V179.555H64.338ZM66.2354 182.697C66.4832 182.697 66.7011 182.659 66.8894 182.583C67.0776 182.508 67.2245 182.398 67.3301 182.254C67.4357 182.11 67.4886 181.935 67.4886 181.731C67.4886 181.661 67.4775 181.583 67.4554 181.497C67.4333 181.41 67.3935 181.324 67.3359 181.239C67.2783 181.154 67.1971 181.075 67.0925 181.002C66.9878 180.93 66.8519 180.872 66.6848 180.831L66.2008 180.717C66.0395 180.684 65.9204 180.643 65.8436 180.597C65.7668 180.55 65.7284 180.486 65.7284 180.404C65.7284 180.295 65.7754 180.214 65.8695 180.16C65.9637 180.106 66.0837 180.08 66.2296 180.08C66.3698 180.08 66.4865 180.112 66.5797 180.176C66.6728 180.241 66.7299 180.333 66.7511 180.452H67.454C67.4502 180.148 67.3383 179.913 67.1184 179.746C66.8985 179.579 66.6051 179.495 66.2383 179.495C65.9675 179.495 65.7389 179.538 65.5527 179.623C65.3664 179.709 65.2257 179.825 65.1306 179.972C65.0355 180.119 64.988 180.285 64.988 180.47C64.9919 180.724 65.0735 180.921 65.2329 181.059C65.3923 181.197 65.6035 181.295 65.8667 181.352L66.391 181.466C66.5254 181.491 66.6219 181.529 66.6805 181.579C66.7391 181.628 66.7684 181.695 66.7684 181.779C66.7684 181.888 66.7189 181.969 66.62 182.021C66.5211 182.074 66.391 182.1 66.2296 182.1C66.1528 182.1 66.0722 182.087 65.9877 182.06C65.9032 182.033 65.8278 181.988 65.7615 181.925C65.6953 181.861 65.6496 181.775 65.6247 181.665H64.8958C64.9323 181.908 65.0168 182.105 65.1493 182.257C65.2819 182.409 65.4441 182.52 65.6362 182.591C65.8283 182.661 66.028 182.697 66.2354 182.697ZM68.8731 180.664V182.637H68.0319V179.555H68.8559V179.99C68.9461 179.855 69.0676 179.739 69.2203 179.641C69.373 179.544 69.5655 179.495 69.7979 179.495C69.8997 179.495 70.0034 179.514 70.109 179.552C70.2146 179.59 70.314 179.645 70.4072 179.717C70.5003 179.79 70.5757 179.881 70.6333 179.99C70.7293 179.849 70.8556 179.731 71.0121 179.637C71.1687 179.542 71.3429 179.495 71.535 179.495C71.6464 179.495 71.7592 179.514 71.8735 179.552C71.9878 179.59 72.0929 179.651 72.1889 179.737C72.285 179.822 72.3623 179.936 72.4209 180.078C72.4794 180.22 72.5087 180.395 72.5087 180.604V182.637H71.6675V180.711C71.6675 180.588 71.644 180.489 71.5969 180.415C71.5499 180.34 71.4904 180.287 71.4183 180.254C71.3463 180.221 71.27 180.205 71.1893 180.205C71.1144 180.205 71.0385 180.22 70.9617 180.251C70.8849 180.282 70.8196 180.331 70.7658 180.398C70.7121 180.466 70.6852 180.554 70.6852 180.664V182.637H69.8468V180.634C69.8468 180.541 69.8228 180.462 69.7748 180.398C69.7268 180.335 69.6668 180.287 69.5948 180.254C69.5228 180.221 69.4493 180.205 69.3744 180.205C69.2976 180.205 69.2208 180.221 69.1439 180.254C69.0671 180.287 69.0028 180.337 68.9509 180.406C68.8991 180.474 68.8731 180.56 68.8731 180.664ZM74.0028 179.114V178.33H73.1847V179.114H74.0028ZM73.994 179.555V182.637H73.1903V179.555H73.994ZM75.8914 182.697C76.1392 182.697 76.3571 182.659 76.5454 182.583C76.7336 182.508 76.8805 182.398 76.9861 182.254C77.0918 182.11 77.1446 181.935 77.1446 181.731C77.1446 181.661 77.1335 181.583 77.1114 181.497C77.0893 181.41 77.0495 181.324 76.9919 181.239C76.9343 181.154 76.8531 181.075 76.7485 181.002C76.6438 180.93 76.5079 180.872 76.3408 180.831L75.8568 180.717C75.6955 180.684 75.5764 180.643 75.4996 180.597C75.4228 180.55 75.3844 180.486 75.3844 180.404C75.3844 180.295 75.4314 180.214 75.5255 180.16C75.6196 180.106 75.7397 180.08 75.8857 180.08C76.0259 180.08 76.1425 180.112 76.2357 180.176C76.3288 180.241 76.3859 180.333 76.4071 180.452H77.11C77.1062 180.148 76.9943 179.913 76.7744 179.746C76.5545 179.579 76.2611 179.495 75.8943 179.495C75.6235 179.495 75.3949 179.538 75.2087 179.623C75.0224 179.709 74.8817 179.825 74.7866 179.972C74.6915 180.119 74.644 180.285 74.644 180.47C74.6479 180.724 74.7295 180.921 74.8889 181.059C75.0483 181.197 75.2596 181.295 75.5227 181.352L76.047 181.466C76.1814 181.491 76.2779 181.529 76.3365 181.579C76.3951 181.628 76.4244 181.695 76.4244 181.779C76.4244 181.888 76.3749 181.969 76.276 182.021C76.1771 182.074 76.047 182.1 75.8857 182.1C75.8088 182.1 75.7282 182.087 75.6437 182.06C75.5592 182.033 75.4838 181.988 75.4175 181.925C75.3513 181.861 75.3056 181.775 75.2807 181.665H74.5518C74.5883 181.908 74.6728 182.105 74.8053 182.257C74.9379 182.409 75.1001 182.52 75.2922 182.591C75.4843 182.661 75.684 182.697 75.8914 182.697ZM79.4827 182.583C79.2945 182.659 79.0765 182.697 78.8288 182.697C78.6214 182.697 78.4216 182.661 78.2296 182.591C78.0375 182.52 77.8752 182.409 77.7427 182.257C77.6102 182.105 77.5257 181.908 77.4892 181.665H78.218C78.243 181.775 78.2886 181.861 78.3549 181.925C78.4211 181.988 78.4965 182.033 78.581 182.06C78.6655 182.087 78.7462 182.1 78.823 182.1C78.9843 182.1 79.1145 182.074 79.2134 182.021C79.3123 181.969 79.3617 181.888 79.3617 181.779C79.3617 181.695 79.3324 181.628 79.2739 181.579C79.2153 181.529 79.1188 181.491 78.9843 181.466L78.46 181.352C78.1969 181.295 77.9857 181.197 77.8262 181.059C77.6668 180.921 77.5852 180.724 77.5814 180.47C77.5814 180.285 77.6289 180.119 77.724 179.972C77.819 179.825 77.9597 179.709 78.146 179.623C78.3323 179.538 78.5609 179.495 78.8316 179.495C79.1985 179.495 79.4918 179.579 79.7117 179.746C79.9316 179.913 80.0435 180.148 80.0474 180.452H79.3444C79.3233 180.333 79.2662 180.241 79.173 180.176C79.0799 180.112 78.9632 180.08 78.823 180.08C78.6771 180.08 78.557 180.106 78.4629 180.16C78.3688 180.214 78.3217 180.295 78.3217 180.404C78.3217 180.486 78.3602 180.55 78.437 180.597C78.5138 180.643 78.6329 180.684 78.7942 180.717L79.2782 180.831C79.4453 180.872 79.5811 180.93 79.6858 181.002C79.7905 181.075 79.8716 181.154 79.9292 181.239C79.9869 181.324 80.0267 181.41 80.0488 181.497C80.0709 181.583 80.0819 181.661 80.0819 181.731C80.0819 181.935 80.0291 182.11 79.9235 182.254C79.8179 182.398 79.6709 182.508 79.4827 182.583Z" fill="#FBFCFE"/>
<defs>
<linearGradient id="paint0_linear_7704_3" x1="0.506226" y1="0" x2="0.506226" y2="270.664" gradientUnits="userSpaceOnUse">
<stop stop-color="#454545"/>
<stop offset="0.226279" stop-color="#999999"/>
<stop offset="1" stop-color="white"/>
</linearGradient>
<linearGradient id="paint1_linear_7704_3" x1="138" y1="41.5491" x2="42.719" y2="41.5491" gradientUnits="userSpaceOnUse">
<stop stop-color="white" stop-opacity="0.01"/>
<stop offset="0.222178" stop-color="#BABABA"/>
<stop offset="0.54678" stop-color="white" stop-opacity="0.01"/>
<stop offset="1" stop-color="white" stop-opacity="0.01"/>
</linearGradient>
<linearGradient id="paint2_linear_7704_3" x1="138" y1="41.3992" x2="42.5667" y2="41.3992" gradientUnits="userSpaceOnUse">
<stop stop-color="white" stop-opacity="0.01"/>
<stop offset="0.222178" stop-color="#BABABA"/>
<stop offset="0.54678" stop-color="white" stop-opacity="0.01"/>
<stop offset="1" stop-color="white" stop-opacity="0.01"/>
</linearGradient>
</defs>
</svg>
